<svg xmlns="http://www.w3.org/2000/svg" xmlns:xlink="http://www.w3.org/1999/xlink" width="500" zoomAndPan="magnify" viewBox="0 0 375 374.999991" height="500" preserveAspectRatio="xMidYMid meet" version="1.0"><defs><g/></defs><rect x="-37.5" width="450" fill="#ffffff" y="-37.499999" height="449.999989" fill-opacity="1"/><rect x="-37.5" width="450" fill="#ffffff" y="-37.499999" height="449.999989" fill-opacity="1"/><rect x="-37.5" width="450" fill="#ffffff" y="-37.499999" height="449.999989" fill-opacity="1"/><g fill="#fffdf5" fill-opacity="1"><g transform="translate(18.601127, 235.929469)"><g><path d="M 17.640625 -2.761719 L 17.640625 -83.039062 C 17.640625 -85.199219 15.839844 -87 13.679688 -87 C 11.398438 -87 9.601562 -85.199219 9.601562 -83.039062 L 9.601562 -2.761719 C 9.601562 -0.601562 11.398438 1.199219 13.679688 1.199219 C 15.839844 1.199219 17.640625 -0.601562 17.640625 -2.761719 Z M 25.679688 -83.039062 L 25.679688 -50.878906 C 25.679688 -48.71875 27.480469 -46.921875 29.640625 -46.921875 L 53.761719 -46.921875 C 55.921875 -46.921875 57.71875 -48.71875 57.71875 -50.878906 L 57.71875 -83.039062 C 57.71875 -85.199219 55.921875 -87 53.761719 -87 C 51.480469 -87 49.679688 -85.199219 49.679688 -83.039062 L 49.679688 -54.960938 L 33.71875 -54.960938 L 33.71875 -83.039062 C 33.71875 -85.199219 31.921875 -87 29.640625 -87 C 27.480469 -87 25.679688 -85.199219 25.679688 -83.039062 Z M 65.761719 -83.039062 L 65.761719 -2.761719 C 65.761719 -0.601562 67.558594 1.199219 69.71875 1.199219 C 72 1.199219 73.800781 -0.601562 73.800781 -2.761719 L 73.800781 -83.039062 C 73.800781 -85.199219 72 -87 69.71875 -87 C 67.558594 -87 65.761719 -85.199219 65.761719 -83.039062 Z M 57.71875 -2.761719 L 57.71875 -34.921875 C 57.71875 -37.078125 55.921875 -38.878906 53.761719 -38.878906 L 29.640625 -38.878906 C 27.480469 -38.878906 25.679688 -37.078125 25.679688 -34.921875 L 25.679688 -2.761719 C 25.679688 -0.601562 27.480469 1.199219 29.640625 1.199219 C 31.921875 1.199219 33.71875 -0.601562 33.71875 -2.761719 L 33.71875 -30.839844 L 49.679688 -30.839844 L 49.679688 -2.761719 C 49.679688 -0.601562 51.480469 1.199219 53.761719 1.199219 C 55.921875 1.199219 57.71875 -0.601562 57.71875 -2.761719 Z M 57.71875 -2.761719 "/></g></g></g><g fill="#fffdf5" fill-opacity="1"><g transform="translate(114.121167, 235.929469)"><g><path d="M 55.078125 -6.839844 L 17.640625 -6.839844 L 17.640625 -78.960938 L 55.078125 -78.960938 C 57.359375 -78.960938 59.160156 -80.761719 59.160156 -83.039062 C 59.160156 -85.199219 57.359375 -87 55.078125 -87 L 13.558594 -87 C 11.398438 -87 9.601562 -85.199219 9.601562 -83.039062 L 9.601562 -2.761719 C 9.601562 -0.601562 11.398438 1.199219 13.558594 1.199219 L 55.078125 1.199219 C 57.359375 1.199219 59.160156 -0.601562 59.160156 -2.761719 C 59.160156 -5.039062 57.359375 -6.839844 55.078125 -6.839844 Z M 55.078125 -70.921875 L 29.640625 -70.921875 C 27.359375 -70.921875 25.558594 -69.238281 25.558594 -66.960938 L 25.558594 -50.878906 C 25.558594 -48.71875 27.359375 -46.921875 29.640625 -46.921875 L 47.640625 -46.921875 C 49.921875 -46.921875 51.71875 -48.71875 51.71875 -50.878906 C 51.71875 -53.160156 49.921875 -54.960938 47.640625 -54.960938 L 33.601562 -54.960938 L 33.601562 -63 L 55.078125 -63 C 57.359375 -63 59.160156 -64.800781 59.160156 -66.960938 C 59.160156 -69.238281 57.359375 -70.921875 55.078125 -70.921875 Z M 47.640625 -38.878906 L 29.640625 -38.878906 C 27.359375 -38.878906 25.558594 -37.078125 25.558594 -34.921875 L 25.558594 -18.839844 C 25.558594 -16.679688 27.359375 -14.878906 29.640625 -14.878906 L 55.078125 -14.878906 C 57.359375 -14.878906 59.160156 -16.679688 59.160156 -18.839844 C 59.160156 -21.121094 57.359375 -22.921875 55.078125 -22.921875 L 33.601562 -22.921875 L 33.601562 -30.839844 L 47.640625 -30.839844 C 49.921875 -30.839844 51.71875 -32.640625 51.71875 -34.921875 C 51.71875 -37.078125 49.921875 -38.878906 47.640625 -38.878906 Z M 47.640625 -38.878906 "/></g></g></g><g fill="#fffdf5" fill-opacity="1"><g transform="translate(191.761199, 235.929469)"><g><path d="M 17.640625 -2.761719 L 17.640625 -78.960938 L 45.238281 -78.960938 C 50.640625 -78.960938 55.558594 -76.800781 59.160156 -73.199219 C 71.519531 -60.71875 62.878906 -38.878906 45.238281 -38.878906 C 42.238281 -38.878906 39.839844 -35.398438 42.238281 -32.28125 L 64.441406 -0.480469 C 67.320312 3.839844 73.921875 -0.839844 70.921875 -5.160156 L 52.320312 -31.800781 C 57.121094 -33 61.441406 -35.640625 64.921875 -39.121094 C 82.199219 -56.878906 69.839844 -87 45.238281 -87 L 13.679688 -87 C 11.519531 -87 9.601562 -85.199219 9.601562 -83.039062 L 9.601562 -2.761719 C 9.601562 2.519531 17.640625 2.519531 17.640625 -2.761719 Z M 43.921875 -46.921875 C 50.519531 -46.921875 56.039062 -52.078125 56.039062 -58.800781 C 56.039062 -64.921875 51.238281 -71.039062 43.921875 -71.039062 L 29.640625 -71.039062 C 24.359375 -71.039062 24.359375 -63 29.640625 -63 L 43.921875 -63 C 46.199219 -63 48.121094 -61.320312 48.121094 -58.921875 C 48.121094 -54.238281 43.679688 -54.839844 39.960938 -54.839844 C 33.480469 -54.839844 33.71875 -47.28125 39.960938 -46.921875 C 41.28125 -46.800781 42.839844 -46.921875 43.921875 -46.921875 Z M 51.359375 -5.160156 L 33 -31.441406 C 30.71875 -34.441406 25.679688 -33.238281 25.679688 -28.921875 L 25.679688 -2.761719 C 25.679688 2.519531 33.71875 2.519531 33.71875 -2.761719 L 33.71875 -16.441406 L 44.761719 -0.480469 C 47.878906 3.839844 54.359375 -0.839844 51.359375 -5.160156 Z M 51.359375 -5.160156 "/></g></g></g><g fill="#fffdf5" fill-opacity="1"><g transform="translate(278.641225, 235.929469)"><g><path d="M 9.71875 -2.039062 L 38.640625 -74.878906 L 67.558594 -2.039062 C 68.398438 0 70.800781 0.960938 72.839844 0.238281 C 74.878906 -0.71875 75.839844 -3 75 -5.039062 L 42.359375 -86.878906 C 42 -87.839844 41.28125 -88.800781 40.078125 -89.160156 C 38.160156 -90 35.761719 -89.039062 34.921875 -86.878906 L 2.160156 -5.039062 C 1.441406 -3 2.519531 -0.71875 4.441406 0.238281 C 6.480469 0.960938 8.761719 0 9.71875 -2.039062 Z M 32.761719 -22.800781 L 44.398438 -22.800781 C 46.679688 -22.800781 48.601562 -24.601562 48.601562 -26.878906 C 48.601562 -27.480469 48.480469 -27.960938 48.238281 -28.441406 L 42.359375 -42.839844 C 41.519531 -44.761719 39.238281 -45.71875 37.078125 -44.878906 C 35.160156 -44.160156 34.199219 -41.761719 34.921875 -39.71875 L 38.519531 -30.839844 L 32.761719 -30.839844 C 30.601562 -30.839844 28.800781 -29.160156 28.800781 -26.878906 C 28.800781 -24.601562 30.601562 -22.800781 32.761719 -22.800781 Z M 26.878906 -2.039062 L 28.921875 -6.71875 L 48.359375 -6.71875 L 50.28125 -2.039062 C 51.121094 0.121094 53.519531 0.960938 55.558594 0.238281 C 57.601562 -0.71875 58.441406 -3 57.71875 -5.039062 L 54.839844 -12 C 54.359375 -13.558594 52.800781 -14.878906 51 -14.878906 L 26.160156 -14.878906 C 24.71875 -14.878906 23.160156 -13.800781 22.441406 -12.359375 L 19.558594 -5.039062 C 18.71875 -3 19.679688 -0.71875 21.71875 0.238281 C 23.878906 0.960938 26.160156 0 26.878906 -2.039062 Z M 26.878906 -2.039062 "/></g></g></g></svg>