<?xml version="1.0" standalone="no"?>
<!DOCTYPE svg PUBLIC "-//W3C//DTD SVG 20010904//EN"
 "http://www.w3.org/TR/2001/REC-SVG-20010904/DTD/svg10.dtd">
<svg version="1.0" xmlns="http://www.w3.org/2000/svg"
 width="500.000000pt" height="500.000000pt" viewBox="0 0 500.000000 500.000000"
 preserveAspectRatio="xMidYMid meet">

<g transform="translate(0.000000,500.000000) scale(0.100000,-0.100000)"
fill="#000000" stroke="none">
<path d="M0 2500 l0 -2500 2500 0 2500 0 0 2500 0 2500 -2500 0 -2500 0 0
-2500z m2195 645 c197 -52 315 -215 315 -436 0 -97 -27 -188 -80 -265 -89
-134 -209 -184 -437 -184 l-103 0 0 -235 c0 -222 -1 -236 -20 -255 -26 -26
-51 -25 -84 1 l-26 20 0 278 c0 223 3 281 14 297 13 17 31 19 198 24 175 5
186 6 240 33 61 30 105 74 140 140 20 36 23 57 23 147 0 91 -3 112 -24 154
-28 56 -80 109 -136 140 -38 20 -56 21 -307 24 l-268 3 0 -608 c0 -468 -3
-614 -13 -633 -18 -36 -59 -48 -91 -26 l-26 16 0 672 c0 611 1 673 17 690 15
17 38 18 312 18 234 0 309 -3 356 -15z m1277 -2 c10 -9 18 -28 18 -43 0 -14
-84 -231 -186 -481 -102 -249 -188 -460 -191 -466 -4 -10 41 -13 206 -13 198
0 212 -1 231 -20 24 -24 26 -67 3 -92 -15 -17 -38 -18 -298 -18 -304 0 -307 1
-307 53 0 12 84 229 187 482 103 253 189 466 192 473 4 9 -64 12 -318 12 -349
0 -366 3 -383 52 -7 20 -5 33 8 52 l16 26 402 0 c359 0 403 -2 420 -17z
m-1322 -264 c61 -33 95 -95 94 -169 -2 -120 -82 -190 -216 -190 -80 0 -108 17
-108 65 0 47 29 65 102 65 88 0 124 46 79 101 -18 23 -27 24 -167 29 l-149 5
-13 27 c-16 33 -2 75 30 88 13 6 86 9 163 7 127 -3 145 -5 185 -28z m923 20
c28 -15 37 -28 37 -55 0 -11 -84 -225 -186 -475 -103 -250 -189 -462 -191
-471 -5 -17 19 -18 398 -18 448 0 439 1 439 -66 0 -65 8 -64 -501 -64 -426 0
-458 1 -479 18 -13 10 -22 29 -22 44 0 14 84 232 187 484 103 253 190 465 192
472 4 9 -29 12 -145 12 -145 0 -152 1 -166 22 -22 32 -20 55 9 83 24 25 26 25
215 25 125 0 199 -4 213 -11z"/>
</g>
</svg>
